Coordinates
version=1
nRows=7
nColumns=40
inDegrees=yes

Units are S.I. units (second, meters, Newtons, ...)
Angles are in degrees.

endheader
time	pelvis_tilt	pelvis_list	pelvis_rotation	pelvis_tx	pelvis_ty	pelvis_tz	hip_flexion_r	hip_adduction_r	hip_rotation_r	knee_angle_r	knee_angle_r_beta	ankle_angle_r	subtalar_angle_r	mtp_angle_r	hip_flexion_l	hip_adduction_l	hip_rotation_l	knee_angle_l	knee_angle_l_beta	ankle_angle_l	subtalar_angle_l	mtp_angle_l	lumbar_extension	lumbar_bending	lumbar_rotation	arm_flex_r	arm_add_r	arm_rot_r	elbow_flex_r	pro_sup_r	wrist_flex_r	wrist_dev_r	arm_flex_l	arm_add_l	arm_rot_l	elbow_flex_l	pro_sup_l	wrist_flex_l	wrist_dev_l
     55.11000000	     -2.88428425	     -2.43466711	      5.86187588	      1.09871182	      0.92420110	      0.45600427	      7.23872491	     -5.23674017	    -10.66927516	     36.69063387	     36.69063387	     13.30063934	     -8.93072507	    -11.87484623	     23.06085246	     -1.80334283	      0.61260576	     25.51163527	     25.51163527	      8.15357456	    -11.86850975	      1.91823717	     -8.52441649	      2.87823323	      2.22577883	     26.79010919	    -12.18259458	      3.95995935	     94.39292635	     44.59837329	      0.00000000	      0.00000000	     -1.48492993	     -8.41920643	     -1.46265572	     26.70890288	     45.95991285	      0.00000000	      0.00000000
     55.12314286	     -2.81668750	     -2.33951161	      5.55135176	      1.09910272	      0.92480429	      0.45358163	      8.85236838	     -5.87642483	     -9.94792352	     40.15055633	     40.15055633	     11.66734483	     -9.93322754	    -12.70270157	     22.45471554	     -1.65943122	      0.34039792	     25.40623918	     25.40623918	      8.53891066	    -11.94179259	      1.77532804	     -8.54103108	      2.82320677	      2.53879862	     25.29852207	    -12.46314492	      4.31116558	     92.27969609	     44.65408091	      0.00000000	      0.00000000	     -0.26204154	     -8.49712998	     -1.39596188	     27.72237097	     45.96420649	      0.00000000	      0.00000000
     55.13628571	     -2.67923474	     -2.33167594	      5.25004128	      1.09940029	      0.92543407	      0.45136364	     10.35443523	     -6.29471935	     -9.10313937	     43.30220491	     43.30220491	      8.88341593	    -11.81952390	    -15.67136184	     21.79097231	     -1.61131539	      0.14579853	     25.29370059	     25.29370059	      8.88677799	    -12.05059539	      1.48520745	     -8.54006001	      2.88324221	      1.95864681	     24.93346288	    -11.83297992	      5.12311068	     87.48524068	     44.80312348	      0.00000000	      0.00000000	      0.04080129	     -8.92235010	     -0.75881175	     29.99876448	     45.85092913	      0.00000000	      0.00000000
     55.14942857	     -2.61751179	     -2.25441165	      4.90550580	      1.09953200	      0.92582404	      0.44921592	     12.15161864	     -6.84416206	     -8.27210871	     46.82116970	     46.82116970	      6.97891832	    -12.57466499	    -15.93798000	     21.20933931	     -1.50583124	     -0.16418153	     25.17635724	     25.17635724	      9.22235437	    -12.05078114	      1.32489768	     -8.58799637	      2.88216910	      2.30408208	     23.36163316	    -12.27831957	      5.59084149	     85.45980143	     44.85125992	      0.00000000	      0.00000000	      1.28725539	     -9.06428130	     -0.68901732	     31.10429360	     45.85839519	      0.00000000	      0.00000000
     55.16257143	     -2.39857391	     -2.26389733	      4.59319407	      1.09955324	      0.92634051	      0.44731504	     13.74415215	     -7.14668008	     -7.38096269	     50.09763082	     50.09763082	      4.89006741	    -13.55127790	    -15.91978085	     20.55933408	     -1.52481161	     -0.47831733	     25.20463546	     25.20463546	      9.57469266	    -12.05557214	      1.00343636	     -8.72296691	      2.94383519	      2.07972442	     22.67220251	    -11.91906220	      6.19228807	     81.14368191	     44.97944275	      0.00000000	      0.00000000	      2.11120415	     -9.47114642	     -0.12001443	     33.04158265	     45.78876698	      0.00000000	      0.00000000
     55.17571429	     -2.26531889	     -2.21658649	      4.28982706	      1.09941360	      0.92666618	      0.44544215	     15.49635898	     -7.51999765	     -6.53417773	     53.38484757	     53.38484757	      3.27625259	    -13.85741180	    -14.64293642	     19.97806223	     -1.46631205	     -0.79592560	     25.17515375	     25.17515375	      9.88733303	    -12.02032653	      0.74810288	     -8.81023512	      2.95641602	      1.61443118	     22.08861613	    -11.59261712	      7.15370023	     76.95753296	     45.09303707	      0.00000000	      0.00000000	      2.67124691	    -10.08587494	      0.73109568	     35.27477717	     45.69552726	      0.00000000	      0.00000000
     55.18885714	     -2.09686625	     -2.16047183	      3.99328320	      1.09918853	      0.92698326	      0.44364129	     17.13920065	     -7.84222306	     -5.70736367	     56.33831384	     56.33831384	      1.47696711	    -14.24691499	    -14.07662510	     19.37850305	     -1.39317903	     -1.08325264	     25.16999977	     25.16999977	     10.23697621	    -12.01569134	      0.60763808	     -9.01195254	      2.97738549	      1.87687971	     20.43081102	    -11.92587664	      7.45624283	     75.02237661	     45.14036766	      0.00000000	      0.00000000	      4.16187702	    -10.27134079	      0.73208805	     36.21704318	     45.72016402	      0.00000000	      0.00000000
